Normalized EMG Linear Envelopes
nRows=135
nColumns=4

endheader
time	 med_gas_r	  soleus_r	 tib_ant_r	
2.6875	  0.002881	  0.018975	  0.001994	
2.75	  0.002681	  0.018979	  0.001818	
2.8125	  0.002579	  0.018994	  0.001616	
2.875	  0.002651	  0.019123	  0.001467	
2.9375	  0.002782	  0.019240	  0.001413	
3	  0.002923	  0.019069	  0.001445	
3.0625	  0.003049	  0.018633	  0.001533	
3.125	  0.003113	  0.018225	  0.001625	
3.1875	  0.003175	  0.017930	  0.001682	
3.25	  0.003216	  0.017735	  0.001701	
3.3125	  0.003154	  0.017669	  0.001669	
3.375	  0.003038	  0.017581	  0.001635	
3.4375	  0.002898	  0.017156	  0.001640	
3.5	  0.002842	  0.016573	  0.001627	
3.5625	  0.002848	  0.016144	  0.001586	
3.625	  0.002788	  0.016009	  0.001528	
3.6875	  0.002691	  0.016123	  0.001466	
3.75	  0.002568	  0.016438	  0.001422	
3.8125	  0.002524	  0.016656	  0.001424	
3.875	  0.002697	  0.016308	  0.001445	
3.9375	  0.003405	  0.015648	  0.001487	
4	  0.005203	  0.015295	  0.001516	
4.0625	  0.008747	  0.015424	  0.001542	
4.125	  0.014014	  0.016101	  0.001580	
4.1875	  0.019811	  0.018182	  0.001611	
4.25	  0.028437	  0.024704	  0.001733	
4.3125	  0.045966	  0.041392	  0.002245	
4.375	  0.077563	  0.072440	  0.003445	
4.4375	  0.118855	  0.113619	  0.005345	
4.5	  0.159090	  0.154540	  0.007706	
4.5625	  0.196125	  0.190620	  0.010405	
4.625	  0.236691	  0.224909	  0.012874	
4.6875	  0.279497	  0.265986	  0.014732	
4.75	  0.321629	  0.305410	  0.015733	
4.8125	  0.353504	  0.338778	  0.016193	
4.875	  0.371760	  0.370309	  0.017069	
4.9375	  0.388321	  0.403818	  0.018926	
5	  0.409752	  0.439751	  0.021879	
5.0625	  0.431444	  0.474476	  0.025632	
5.125	  0.452202	  0.500157	  0.030227	
5.1875	  0.475107	  0.513705	  0.034432	
5.25	  0.505037	  0.526162	  0.037288	
5.3125	  0.533665	  0.534803	  0.038354	
5.375	  0.549649	  0.540701	  0.038507	
5.4375	  0.549662	  0.549426	  0.038619	
5.5	  0.545263	  0.567869	  0.039170	
5.5625	  0.546991	  0.598603	  0.040716	
5.625	  0.544931	  0.625042	  0.044044	
5.6875	  0.534880	  0.621142	  0.048836	
5.75	  0.525259	  0.602484	  0.053127	
5.8125	  0.527914	  0.589785	  0.055746	
5.875	  0.549175	  0.584266	  0.056454	
5.9375	  0.599615	  0.580605	  0.056790	
6	  0.668046	  0.584135	  0.058938	
6.0625	  0.720163	  0.604078	  0.063105	
6.125	  0.746642	  0.643705	  0.068261	
6.1875	  0.753759	  0.682232	  0.072701	
6.25	  0.722448	  0.692287	  0.074989	
6.3125	  0.668174	  0.663315	  0.075261	
6.375	  0.617369	  0.607031	  0.072589	
6.4375	  0.599206	  0.557393	  0.068525	
6.5	  0.617437	  0.531931	  0.065497	
6.5625	  0.652318	  0.520714	  0.064470	
6.625	  0.682123	  0.517365	  0.064819	
6.6875	  0.699056	  0.527140	  0.066057	
6.75	  0.704381	  0.549194	  0.068357	
6.8125	  0.711701	  0.568365	  0.071199	
6.875	  0.716950	  0.562954	  0.072124	
6.9375	  0.716466	  0.534123	  0.069422	
7	  0.717761	  0.507003	  0.065454	
7.0625	  0.724051	  0.497300	  0.062886	
7.125	  0.729412	  0.505679	  0.063160	
7.1875	  0.712329	  0.520888	  0.065299	
7.25	  0.674086	  0.531948	  0.067329	
7.3125	  0.624208	  0.528777	  0.067229	
7.375	  0.571405	  0.517581	  0.064397	
7.4375	  0.541381	  0.508829	  0.059890	
7.5	  0.540963	  0.506942	  0.055253	
7.5625	  0.551278	  0.514562	  0.050952	
7.625	  0.553500	  0.517267	  0.047664	
7.6875	  0.555053	  0.506408	  0.045943	
7.75	  0.556516	  0.487116	  0.045179	
7.8125	  0.557558	  0.459516	  0.044614	
7.875	  0.556633	  0.431434	  0.044122	
7.9375	  0.547652	  0.411504	  0.043253	
8	  0.535797	  0.400919	  0.042865	
8.0625	  0.519955	  0.404123	  0.043923	
8.125	  0.499892	  0.414243	  0.045516	
8.1875	  0.487659	  0.416422	  0.047063	
8.25	  0.491302	  0.415717	  0.047971	
8.3125	  0.497960	  0.407451	  0.048042	
8.375	  0.499823	  0.386292	  0.048167	
8.4375	  0.497702	  0.362256	  0.049298	
8.5	  0.496628	  0.351575	  0.051785	
8.5625	  0.498023	  0.355574	  0.054573	
8.625	  0.500406	  0.365449	  0.055567	
8.6875	  0.517556	  0.381405	  0.056685	
8.75	  0.559220	  0.402229	  0.058956	
8.8125	  0.604993	  0.431487	  0.061391	
8.875	  0.627284	  0.450516	  0.061602	
8.9375	  0.615747	  0.436267	  0.058285	
9	  0.572582	  0.378147	  0.055383	
9.0625	  0.495256	  0.290776	  0.058827	
9.125	  0.395483	  0.199373	  0.073165	
9.1875	  0.304064	  0.124643	  0.096473	
9.25	  0.223612	  0.077478	  0.112576	
9.3125	  0.145001	  0.054396	  0.108259	
9.375	  0.075072	  0.045256	  0.086106	
9.4375	  0.028729	  0.042411	  0.061684	
9.5	  0.006108	  0.041330	  0.047762	
9.5625	 -0.001264	  0.040382	  0.042475	
9.625	 -0.001491	  0.038174	  0.039703	
9.6875	  0.000514	  0.035179	  0.037237	
9.75	  0.002450	  0.032629	  0.032716	
9.8125	  0.003653	  0.031637	  0.026874	
9.875	  0.004178	  0.032063	  0.020475	
9.9375	  0.004244	  0.033199	  0.015541	
10	  0.004053	  0.035272	  0.012717	
10.0625	  0.003774	  0.037473	  0.011165	
10.125	  0.003449	  0.037888	  0.009950	
10.1875	  0.003169	  0.035428	  0.008260	
10.25	  0.002941	  0.031854	  0.006292	
10.3125	  0.002820	  0.028877	  0.004865	
10.375	  0.002876	  0.027370	  0.003971	
10.4375	  0.003055	  0.027081	  0.003521	
10.5	  0.003234	  0.027048	  0.003262	
10.5625	  0.003316	  0.027029	  0.002985	
10.625	  0.003311	  0.027193	  0.002727	
10.6875	  0.003248	  0.027757	  0.002467	
10.75	  0.003163	  0.028284	  0.002232	
10.8125	  0.003162	  0.027983	  0.002087	
10.875	  0.003263	  0.026840	  0.002064	
10.9375	  0.003359	  0.025663	  0.002127	
11	  0.003369	  0.025313	  0.002218	
11.0625	  0.003247	  0.026250	  0.002295	
